<mxfile host="app.diagrams.net" modified="2023-06-27T14:30:06.513Z" agent="Mozilla/5.0 (Windows NT 10.0; Win64; x64) AppleWebKit/537.36 (KHTML, like Gecko) Chrome/114.0.0.0 Safari/537.36 Edg/114.0.1823.58" etag="PM3z6dgQHOL8Ei2M-bjt" version="21.5.0" type="device">
  <diagram name="Page-1" id="XoqspSZlnsydUgbgzQ2A">
    <mxGraphModel dx="593" dy="461" grid="1" gridSize="10" guides="1" tooltips="1" connect="1" arrows="1" fold="1" page="1" pageScale="1" pageWidth="1100" pageHeight="850" math="0" shadow="0">
      <root>
        <mxCell id="0" />
        <mxCell id="1" parent="0" />
        <mxCell id="beJ6pNw2rYnG9j7BmTIq-1" value="Tên bài hát" style="rounded=1;whiteSpace=wrap;html=1;" vertex="1" parent="1">
          <mxGeometry x="280" y="200" width="280" height="40" as="geometry" />
        </mxCell>
        <mxCell id="beJ6pNw2rYnG9j7BmTIq-2" value="Thêm" style="rounded=1;whiteSpace=wrap;html=1;" vertex="1" parent="1">
          <mxGeometry x="580" y="200" width="100" height="40" as="geometry" />
        </mxCell>
        <mxCell id="beJ6pNw2rYnG9j7BmTIq-3" value="" style="endArrow=none;dashed=1;html=1;rounded=0;" edge="1" parent="1">
          <mxGeometry width="50" height="50" relative="1" as="geometry">
            <mxPoint x="270" y="180" as="sourcePoint" />
            <mxPoint x="690" y="180" as="targetPoint" />
          </mxGeometry>
        </mxCell>
        <mxCell id="beJ6pNw2rYnG9j7BmTIq-4" value="" style="endArrow=none;dashed=1;html=1;rounded=0;" edge="1" parent="1">
          <mxGeometry width="50" height="50" relative="1" as="geometry">
            <mxPoint x="270" y="260" as="sourcePoint" />
            <mxPoint x="270" y="180" as="targetPoint" />
          </mxGeometry>
        </mxCell>
        <mxCell id="beJ6pNw2rYnG9j7BmTIq-5" value="" style="endArrow=none;dashed=1;html=1;rounded=0;" edge="1" parent="1">
          <mxGeometry width="50" height="50" relative="1" as="geometry">
            <mxPoint x="690" y="260" as="sourcePoint" />
            <mxPoint x="270" y="260" as="targetPoint" />
          </mxGeometry>
        </mxCell>
        <mxCell id="beJ6pNw2rYnG9j7BmTIq-6" value="" style="endArrow=none;dashed=1;html=1;rounded=0;" edge="1" parent="1">
          <mxGeometry width="50" height="50" relative="1" as="geometry">
            <mxPoint x="690" y="260" as="sourcePoint" />
            <mxPoint x="690" y="180" as="targetPoint" />
          </mxGeometry>
        </mxCell>
        <mxCell id="beJ6pNw2rYnG9j7BmTIq-8" value="" style="endArrow=none;dashed=1;html=1;rounded=0;" edge="1" parent="1">
          <mxGeometry width="50" height="50" relative="1" as="geometry">
            <mxPoint x="270" y="280" as="sourcePoint" />
            <mxPoint x="690" y="280" as="targetPoint" />
          </mxGeometry>
        </mxCell>
        <mxCell id="beJ6pNw2rYnG9j7BmTIq-9" value="" style="endArrow=none;dashed=1;html=1;rounded=0;" edge="1" parent="1">
          <mxGeometry width="50" height="50" relative="1" as="geometry">
            <mxPoint x="270" y="510" as="sourcePoint" />
            <mxPoint x="270" y="280" as="targetPoint" />
          </mxGeometry>
        </mxCell>
        <mxCell id="beJ6pNw2rYnG9j7BmTIq-10" value="" style="endArrow=none;dashed=1;html=1;rounded=0;" edge="1" parent="1">
          <mxGeometry width="50" height="50" relative="1" as="geometry">
            <mxPoint x="690" y="510" as="sourcePoint" />
            <mxPoint x="270" y="510" as="targetPoint" />
          </mxGeometry>
        </mxCell>
        <mxCell id="beJ6pNw2rYnG9j7BmTIq-11" value="" style="endArrow=none;dashed=1;html=1;rounded=0;" edge="1" parent="1">
          <mxGeometry width="50" height="50" relative="1" as="geometry">
            <mxPoint x="690" y="510" as="sourcePoint" />
            <mxPoint x="690" y="280" as="targetPoint" />
          </mxGeometry>
        </mxCell>
        <mxCell id="beJ6pNw2rYnG9j7BmTIq-12" value="1. Bài hát A" style="rounded=1;whiteSpace=wrap;html=1;align=left;" vertex="1" parent="1">
          <mxGeometry x="280" y="290" width="320" height="40" as="geometry" />
        </mxCell>
        <mxCell id="beJ6pNw2rYnG9j7BmTIq-13" value="Sửa" style="rounded=1;whiteSpace=wrap;html=1;" vertex="1" parent="1">
          <mxGeometry x="610" y="290" width="70" height="40" as="geometry" />
        </mxCell>
        <mxCell id="beJ6pNw2rYnG9j7BmTIq-15" value="1. Bài hát A" style="rounded=1;whiteSpace=wrap;html=1;align=left;" vertex="1" parent="1">
          <mxGeometry x="280" y="340" width="320" height="40" as="geometry" />
        </mxCell>
        <mxCell id="beJ6pNw2rYnG9j7BmTIq-16" value="Sửa" style="rounded=1;whiteSpace=wrap;html=1;" vertex="1" parent="1">
          <mxGeometry x="610" y="340" width="70" height="40" as="geometry" />
        </mxCell>
        <mxCell id="beJ6pNw2rYnG9j7BmTIq-17" value="1. Bài hát A" style="rounded=1;whiteSpace=wrap;html=1;align=left;" vertex="1" parent="1">
          <mxGeometry x="280" y="390" width="320" height="40" as="geometry" />
        </mxCell>
        <mxCell id="beJ6pNw2rYnG9j7BmTIq-18" value="Sửa" style="rounded=1;whiteSpace=wrap;html=1;" vertex="1" parent="1">
          <mxGeometry x="610" y="390" width="70" height="40" as="geometry" />
        </mxCell>
        <mxCell id="beJ6pNw2rYnG9j7BmTIq-20" value="" style="rounded=0;whiteSpace=wrap;html=1;labelBackgroundColor=none;fillColor=none;" vertex="1" parent="1">
          <mxGeometry x="240" y="160" width="480" height="380" as="geometry" />
        </mxCell>
        <mxCell id="beJ6pNw2rYnG9j7BmTIq-22" value="" style="rounded=0;whiteSpace=wrap;html=1;fillColor=none;" vertex="1" parent="1">
          <mxGeometry x="270" y="280" width="420" height="60" as="geometry" />
        </mxCell>
        <mxCell id="beJ6pNw2rYnG9j7BmTIq-24" value="App&lt;br&gt;songs: []" style="ellipse;whiteSpace=wrap;html=1;aspect=fixed;" vertex="1" parent="1">
          <mxGeometry x="870" y="170" width="80" height="80" as="geometry" />
        </mxCell>
        <mxCell id="beJ6pNw2rYnG9j7BmTIq-25" value="SongForm" style="ellipse;whiteSpace=wrap;html=1;aspect=fixed;align=center;" vertex="1" parent="1">
          <mxGeometry x="770" y="310" width="80" height="80" as="geometry" />
        </mxCell>
        <mxCell id="beJ6pNw2rYnG9j7BmTIq-26" value="ListSong" style="ellipse;whiteSpace=wrap;html=1;aspect=fixed;" vertex="1" parent="1">
          <mxGeometry x="970" y="310" width="80" height="80" as="geometry" />
        </mxCell>
        <mxCell id="beJ6pNw2rYnG9j7BmTIq-27" value="SongItem" style="ellipse;whiteSpace=wrap;html=1;aspect=fixed;" vertex="1" parent="1">
          <mxGeometry x="970" y="440" width="80" height="80" as="geometry" />
        </mxCell>
        <mxCell id="beJ6pNw2rYnG9j7BmTIq-28" value="SongItem" style="ellipse;whiteSpace=wrap;html=1;aspect=fixed;" vertex="1" parent="1">
          <mxGeometry x="860" y="440" width="80" height="80" as="geometry" />
        </mxCell>
        <mxCell id="beJ6pNw2rYnG9j7BmTIq-29" value="SongItem" style="ellipse;whiteSpace=wrap;html=1;aspect=fixed;" vertex="1" parent="1">
          <mxGeometry x="750" y="440" width="80" height="80" as="geometry" />
        </mxCell>
        <mxCell id="beJ6pNw2rYnG9j7BmTIq-33" value="props" style="endArrow=classic;html=1;rounded=0;exitX=0;exitY=0.5;exitDx=0;exitDy=0;entryX=0.5;entryY=0;entryDx=0;entryDy=0;" edge="1" parent="1" source="beJ6pNw2rYnG9j7BmTIq-26" target="beJ6pNw2rYnG9j7BmTIq-29">
          <mxGeometry width="50" height="50" relative="1" as="geometry">
            <mxPoint x="870" y="420" as="sourcePoint" />
            <mxPoint x="920" y="370" as="targetPoint" />
          </mxGeometry>
        </mxCell>
        <mxCell id="beJ6pNw2rYnG9j7BmTIq-34" value="props" style="endArrow=classic;html=1;rounded=0;exitX=0;exitY=1;exitDx=0;exitDy=0;entryX=0.5;entryY=0;entryDx=0;entryDy=0;" edge="1" parent="1" source="beJ6pNw2rYnG9j7BmTIq-26" target="beJ6pNw2rYnG9j7BmTIq-28">
          <mxGeometry width="50" height="50" relative="1" as="geometry">
            <mxPoint x="870" y="420" as="sourcePoint" />
            <mxPoint x="920" y="370" as="targetPoint" />
          </mxGeometry>
        </mxCell>
        <mxCell id="beJ6pNw2rYnG9j7BmTIq-35" value="props" style="endArrow=classic;html=1;rounded=0;exitX=0;exitY=1;exitDx=0;exitDy=0;entryX=0;entryY=0;entryDx=0;entryDy=0;" edge="1" parent="1" source="beJ6pNw2rYnG9j7BmTIq-26" target="beJ6pNw2rYnG9j7BmTIq-27">
          <mxGeometry width="50" height="50" relative="1" as="geometry">
            <mxPoint x="870" y="420" as="sourcePoint" />
            <mxPoint x="920" y="370" as="targetPoint" />
          </mxGeometry>
        </mxCell>
        <mxCell id="beJ6pNw2rYnG9j7BmTIq-36" value="props" style="endArrow=classic;html=1;rounded=0;exitX=0;exitY=0.5;exitDx=0;exitDy=0;entryX=0;entryY=0;entryDx=0;entryDy=0;" edge="1" parent="1" source="beJ6pNw2rYnG9j7BmTIq-24" target="beJ6pNw2rYnG9j7BmTIq-25">
          <mxGeometry width="50" height="50" relative="1" as="geometry">
            <mxPoint x="880" y="370" as="sourcePoint" />
            <mxPoint x="930" y="320" as="targetPoint" />
          </mxGeometry>
        </mxCell>
        <mxCell id="beJ6pNw2rYnG9j7BmTIq-37" value="props" style="endArrow=classic;html=1;rounded=0;exitX=1;exitY=0.5;exitDx=0;exitDy=0;entryX=1;entryY=0;entryDx=0;entryDy=0;" edge="1" parent="1" source="beJ6pNw2rYnG9j7BmTIq-24" target="beJ6pNw2rYnG9j7BmTIq-26">
          <mxGeometry width="50" height="50" relative="1" as="geometry">
            <mxPoint x="880" y="370" as="sourcePoint" />
            <mxPoint x="930" y="320" as="targetPoint" />
          </mxGeometry>
        </mxCell>
        <mxCell id="beJ6pNw2rYnG9j7BmTIq-38" value="events" style="endArrow=classic;html=1;rounded=0;exitX=1;exitY=0;exitDx=0;exitDy=0;entryX=0.294;entryY=0.956;entryDx=0;entryDy=0;entryPerimeter=0;" edge="1" parent="1" source="beJ6pNw2rYnG9j7BmTIq-25" target="beJ6pNw2rYnG9j7BmTIq-24">
          <mxGeometry width="50" height="50" relative="1" as="geometry">
            <mxPoint x="880" y="370" as="sourcePoint" />
            <mxPoint x="890" y="250" as="targetPoint" />
          </mxGeometry>
        </mxCell>
        <mxCell id="beJ6pNw2rYnG9j7BmTIq-39" value="events" style="endArrow=classic;html=1;rounded=0;exitX=1;exitY=0;exitDx=0;exitDy=0;entryX=0.862;entryY=0.913;entryDx=0;entryDy=0;entryPerimeter=0;" edge="1" parent="1" source="beJ6pNw2rYnG9j7BmTIq-27" target="beJ6pNw2rYnG9j7BmTIq-26">
          <mxGeometry width="50" height="50" relative="1" as="geometry">
            <mxPoint x="880" y="370" as="sourcePoint" />
            <mxPoint x="930" y="320" as="targetPoint" />
          </mxGeometry>
        </mxCell>
        <mxCell id="beJ6pNw2rYnG9j7BmTIq-40" value="events" style="endArrow=classic;html=1;rounded=0;exitX=0.04;exitY=0.276;exitDx=0;exitDy=0;entryX=0.5;entryY=1;entryDx=0;entryDy=0;exitPerimeter=0;" edge="1" parent="1" source="beJ6pNw2rYnG9j7BmTIq-26" target="beJ6pNw2rYnG9j7BmTIq-24">
          <mxGeometry width="50" height="50" relative="1" as="geometry">
            <mxPoint x="1048" y="462" as="sourcePoint" />
            <mxPoint x="1049" y="393" as="targetPoint" />
          </mxGeometry>
        </mxCell>
      </root>
    </mxGraphModel>
  </diagram>
</mxfile>
